<?xml version="1.0" encoding="UTF-8"?>
<svg id="Layer_1" xmlns="http://www.w3.org/2000/svg" version="1.1" viewBox="0 0 1080 1080">
  <!-- Generator: Adobe Illustrator 30.0.0, SVG Export Plug-In . SVG Version: 2.1.1 Build 123)  -->
  <defs>
    <style>
      .st0 {
        fill: #ea1c33;
      }

      .st1 {
        fill: #231f20;
      }

      .st2 {
        fill: #fff;
      }
    </style>
  </defs>
  <rect class="st1" width="1080" height="1079.41"/>
  <g>
    <path class="st2" d="M547.92,461.46c0,30.92-12.18,58.1-32.8,77.77,20.62,19.68,32.8,47.79,32.8,78.71v218.32c0,8.43-6.56,14.99-14.99,14.99h-29.98c-8.44,0-14.99-6.56-14.99-14.99v-218.32c0-27.18-21.55-48.73-47.79-48.73h-47.79v267.05c0,8.43-7.5,14.99-14.99,14.99h-29.99c-8.43,0-14.99-6.56-14.99-14.99V258.14c0-15.93,13.11-29.98,29.98-29.98h77.78c59.97,0,107.76,48.72,107.76,108.69v124.62ZM523.55,336.84c0-45.91-37.48-83.4-83.39-83.4h-77.78c-2.81,0-5.62,1.88-5.62,4.69v565.01c0,1.88,1.88,3.75,4.69,3.75h1.87c1.87,0,3.74-1.87,3.74-3.75v-278.29h73.09c40.29,0,73.08,32.8,73.08,73.09v205.2c0,1.88,1.87,3.75,3.75,3.75h1.87c2.81,0,4.68-1.87,4.68-3.75v-205.2c0-36.55-23.42-66.53-55.28-78.71,31.86-11.24,55.28-42.17,55.28-77.77v-124.62ZM513.24,336.84v124.62c0,40.29-32.79,73.09-73.08,73.09h-73.09v-270.79h73.09c40.29,0,73.08,32.79,73.08,73.09ZM487.95,336.84c0-27.17-21.55-48.72-47.79-48.72h-47.79v221.13h47.79c26.24,0,47.79-21.55,47.79-47.79v-124.62Z"/>
    <polygon class="st0" points="764.8 460.02 672.78 460.02 626.78 539.71 672.78 619.39 764.8 619.39 810.8 539.71 764.8 460.02"/>
    <polygon class="st0" points="764.8 228.15 672.78 228.15 626.78 307.84 672.78 387.52 764.8 387.52 810.8 307.84 764.8 228.15"/>
    <polygon class="st0" points="764.8 691.89 672.78 691.89 626.78 771.58 672.78 851.26 764.8 851.26 810.8 771.58 764.8 691.89"/>
  </g>
</svg>